<svg width="195" height="54" viewBox="0 0 195 54" fill="none" xmlns="http://www.w3.org/2000/svg">
<path stroke="#fff" strokeWidth="1" fill="none" d="M17.4 2.2H17.65V1.95H17.4V2.2ZM17.4 19V19.25H17.65V19H17.4ZM13.512 19H13.262V19.25H13.512V19ZM13.512 12.112H13.762V11.862H13.512V12.112ZM5.88 12.112V11.862H5.63V12.112H5.88ZM5.88 19V19.25H6.13V19H5.88ZM1.992 19H1.742V19.25H1.992V19ZM1.992 2.2V1.95H1.742V2.2H1.992ZM5.88 2.2H6.13V1.95H5.88V2.2ZM5.88 8.824H5.63V9.074H5.88V8.824ZM13.512 8.824V9.074H13.762V8.824H13.512ZM13.512 2.2V1.95H13.262V2.2H13.512ZM17.15 2.2V19H17.65V2.2H17.15ZM17.4 18.75H13.512V19.25H17.4V18.75ZM13.762 19V12.112H13.262V19H13.762ZM13.512 11.862H5.88V12.362H13.512V11.862ZM5.63 12.112V19H6.13V12.112H5.63ZM5.88 18.75H1.992V19.25H5.88V18.75ZM2.242 19V2.2H1.742V19H2.242ZM1.992 2.45H5.88V1.95H1.992V2.45ZM5.63 2.2V8.824H6.13V2.2H5.63ZM5.88 9.074H13.512V8.574H5.88V9.074ZM13.762 8.824V2.2H13.262V8.824H13.762ZM13.512 2.45H17.4V1.95H13.512V2.45ZM33.6868 13.6V13.85H33.9183L33.9361 13.6192L33.6868 13.6ZM23.9188 13.6V13.35H23.6078L23.6747 13.6537L23.9188 13.6ZM25.1668 15.496L25.3112 15.2919L25.3112 15.2919L25.1668 15.496ZM29.3908 15.904L29.4786 16.1381L29.4824 16.1366L29.3908 15.904ZM30.8548 14.944L31.0386 14.7745L30.8653 14.5866L30.6813 14.764L30.8548 14.944ZM32.8468 17.104L33.0351 17.2685L33.1827 17.0995L33.0306 16.9345L32.8468 17.104ZM23.6548 18.352L23.5405 18.5743L23.543 18.5756L23.6548 18.352ZM21.0628 15.976L20.8487 16.1051L20.8487 16.1051L21.0628 15.976ZM21.0388 9.136L20.8238 9.00836L20.8232 9.00939L21.0388 9.136ZM23.5108 6.76L23.6293 6.98012L23.6305 6.97947L23.5108 6.76ZM30.4708 6.712L30.5881 6.49122L30.5881 6.49122L30.4708 6.712ZM32.8708 9.064L32.6529 9.18659L32.6552 9.1906L32.8708 9.064ZM24.9268 9.448L24.7668 9.25594L24.7668 9.25594L24.9268 9.448ZM23.8708 11.416L23.6237 11.378L23.5794 11.666H23.8708V11.416ZM30.2308 11.416V11.666H30.5231L30.4778 11.3773L30.2308 11.416ZM29.1748 9.472L29.0117 9.66147L29.0148 9.66405L29.1748 9.472ZM33.5088 12.592C33.5088 12.591 33.5088 12.5958 33.508 12.611C33.5073 12.6246 33.5063 12.6429 33.5048 12.6664C33.5019 12.7133 33.4974 12.7785 33.4914 12.8622C33.4795 13.0295 33.4615 13.269 33.4375 13.5808L33.9361 13.6192C33.9834 13.0044 34.0088 12.6527 34.0088 12.592H33.5088ZM33.6868 13.35H23.9188V13.85H33.6868V13.35ZM23.6747 13.6537C23.8637 14.5132 24.3145 15.1994 25.0224 15.7001L25.3112 15.2919C24.7071 14.8646 24.3259 14.2868 24.163 13.5463L23.6747 13.6537ZM25.0224 15.7001C25.729 16.1999 26.5984 16.442 27.6148 16.442V15.942C26.6792 15.942 25.9166 15.7201 25.3112 15.2919L25.0224 15.7001ZM27.6148 16.442C28.3102 16.442 28.9329 16.3427 29.4786 16.1381L29.303 15.6699C28.8247 15.8493 28.2635 15.942 27.6148 15.942V16.442ZM29.4824 16.1366C30.0438 15.9155 30.5591 15.5765 31.0283 15.124L30.6813 14.764C30.2546 15.1755 29.7939 15.4765 29.2992 15.6714L29.4824 16.1366ZM30.671 15.1135L32.663 17.2735L33.0306 16.9345L31.0386 14.7745L30.671 15.1135ZM32.6585 16.9395C31.502 18.2635 29.8031 18.942 27.5188 18.942V19.442C29.9065 19.442 31.7596 18.7285 33.0351 17.2685L32.6585 16.9395ZM27.5188 18.942C26.0953 18.942 24.8467 18.6684 23.7666 18.1284L23.543 18.5756C24.703 19.1556 26.0303 19.442 27.5188 19.442V18.942ZM23.7691 18.1297C22.6874 17.5733 21.8592 16.8124 21.2769 15.8469L20.8487 16.1051C21.4824 17.1556 22.3822 17.9787 23.5405 18.5743L23.7691 18.1297ZM21.2769 15.8469C20.6944 14.8812 20.4008 13.7826 20.4008 12.544H19.9008C19.9008 13.8654 20.2152 15.0548 20.8487 16.1051L21.2769 15.8469ZM20.4008 12.544C20.4008 11.3208 20.6867 10.2291 21.2544 9.26261L20.8232 9.00939C20.2069 10.0589 19.9008 11.2392 19.9008 12.544H20.4008ZM21.2538 9.26363C21.8388 8.2783 22.6296 7.51842 23.6293 6.98012L23.3923 6.53988C22.312 7.12157 21.4548 7.9457 20.8238 9.00837L21.2538 9.26363ZM23.6305 6.97947C24.647 6.42504 25.7813 6.146 27.0388 6.146V5.646C25.7043 5.646 24.4866 5.94296 23.3911 6.54052L23.6305 6.97947ZM27.0388 6.146C28.2657 6.146 29.3688 6.40966 30.3535 6.93278L30.5881 6.49122C29.5248 5.92634 28.3399 5.646 27.0388 5.646V6.146ZM30.3535 6.93278C31.3347 7.45403 32.1 8.20367 32.6529 9.18656L33.0887 8.94143C32.4896 7.87633 31.6549 7.05797 30.5881 6.49122L30.3535 6.93278ZM32.6552 9.1906C33.2215 10.1548 33.5088 11.2857 33.5088 12.592H34.0088C34.0088 11.2103 33.7041 9.98922 33.0864 8.93739L32.6552 9.1906ZM27.0628 8.478C26.1645 8.478 25.3936 8.73361 24.7668 9.25594L25.0869 9.64005C25.6121 9.20239 26.2652 8.978 27.0628 8.978V8.478ZM24.7668 9.25594C24.1381 9.77981 23.7598 10.4937 23.6237 11.378L24.1179 11.454C24.2379 10.6743 24.5635 10.0762 25.0869 9.64005L24.7668 9.25594ZM23.8708 11.666H30.2308V11.166H23.8708V11.666ZM30.4778 11.3773C30.3414 10.5079 29.9624 9.80285 29.3349 9.27994L29.0148 9.66405C29.5393 10.1011 29.8642 10.6921 29.9838 11.4547L30.4778 11.3773ZM29.3379 9.28256C28.7122 8.74369 27.9486 8.478 27.0628 8.478V8.978C27.841 8.978 28.4855 9.20831 29.0117 9.66144L29.3379 9.28256ZM36.2514 1.192V0.941999H36.0014V1.192H36.2514ZM39.9954 1.192H40.2454V0.941999H39.9954V1.192ZM39.9954 19V19.25H40.2454V19H39.9954ZM36.2514 19H36.0014V19.25H36.2514V19ZM36.2514 1.442H39.9954V0.941999H36.2514V1.442ZM39.7454 1.192V19H40.2454V1.192H39.7454ZM39.9954 18.75H36.2514V19.25H39.9954V18.75ZM36.5014 19V1.192H36.0014V19H36.5014ZM43.4702 1.192V0.941999H43.2202V1.192H43.4702ZM47.2142 1.192H47.4642V0.941999H47.2142V1.192ZM47.2142 19V19.25H47.4642V19H47.2142ZM43.4702 19H43.2202V19.25H43.4702V19ZM43.4702 1.442H47.2142V0.941999H43.4702V1.442ZM46.9642 1.192V19H47.4642V1.192H46.9642ZM47.2142 18.75H43.4702V19.25H47.2142V18.75ZM43.7202 19V1.192H43.2202V19H43.7202ZM53.1609 18.352L53.0426 18.5723L53.0465 18.5743L53.1609 18.352ZM50.6409 15.976L50.4269 16.1051L50.4269 16.1051L50.6409 15.976ZM50.6409 9.112L50.4269 8.98288L50.4269 8.98288L50.6409 9.112ZM53.1609 6.76L53.2767 6.98159L53.2779 6.98095L53.1609 6.76ZM60.4809 6.76L60.3626 6.98024L60.3652 6.98159L60.4809 6.76ZM63.0009 9.112L63.215 8.98288L63.215 8.98288L63.0009 9.112ZM63.0009 15.976L63.215 16.1051L63.215 16.1051L63.0009 15.976ZM60.4809 18.352L60.5967 18.5736L60.5993 18.5722L60.4809 18.352ZM59.1849 15.16L59.0038 14.9877L59.0037 14.9878L59.1849 15.16ZM59.1849 9.952L59.0015 10.122L59.0059 10.1265L59.1849 9.952ZM54.4569 9.952L54.636 10.1265L54.6381 10.1243L54.4569 9.952ZM54.4569 15.16L54.2758 15.3323L54.2779 15.3345L54.4569 15.16ZM56.8329 18.942C55.5082 18.942 54.3242 18.6695 53.2753 18.1297L53.0465 18.5743C54.1737 19.1545 55.4376 19.442 56.8329 19.442V18.942ZM53.2793 18.1318C52.2454 17.5763 51.439 16.8151 50.855 15.8469L50.4269 16.1051C51.0588 17.1529 51.9325 17.9757 53.0426 18.5722L53.2793 18.1318ZM50.855 15.8469C50.2726 14.8812 49.9789 13.7826 49.9789 12.544H49.4789C49.4789 13.8654 49.7933 15.0548 50.4269 16.1051L50.855 15.8469ZM49.9789 12.544C49.9789 11.3054 50.2726 10.2068 50.855 9.24112L50.4269 8.98288C49.7933 10.0332 49.4789 11.2226 49.4789 12.544H49.9789ZM50.855 9.24112C51.4387 8.27349 52.2442 7.52097 53.2767 6.98159L53.0452 6.53841C51.9337 7.11902 51.0592 7.93451 50.4269 8.98288L50.855 9.24112ZM53.2779 6.98095C54.3262 6.42596 55.5094 6.146 56.8329 6.146V5.646C55.4365 5.646 54.1717 5.94204 53.044 6.53905L53.2779 6.98095ZM56.8329 6.146C58.1566 6.146 59.3311 6.42598 60.3626 6.98022L60.5993 6.53978C59.4868 5.94202 58.2293 5.646 56.8329 5.646V6.146ZM60.3652 6.98159C61.3977 7.52097 62.2032 8.27349 62.7869 9.24112L63.215 8.98288C62.5827 7.93451 61.7082 7.11902 60.5967 6.53841L60.3652 6.98159ZM62.7869 9.24112C63.3693 10.2068 63.6629 11.3054 63.6629 12.544H64.1629C64.1629 11.2226 63.8486 10.0332 63.215 8.98288L62.7869 9.24112ZM63.6629 12.544C63.6629 13.7826 63.3693 14.8812 62.7869 15.8469L63.215 16.1051C63.8486 15.0548 64.1629 13.8654 64.1629 12.544H63.6629ZM62.7869 15.8469C62.2028 16.8151 61.3965 17.5763 60.3626 18.1318L60.5993 18.5722C61.7094 17.9757 62.583 17.1529 63.215 16.1051L62.7869 15.8469ZM60.3652 18.1304C59.3332 18.6695 58.1577 18.942 56.8329 18.942V19.442C58.2282 19.442 59.4847 19.1545 60.5967 18.5736L60.3652 18.1304ZM56.8329 16.37C57.8548 16.37 58.7066 16.0265 59.3662 15.3322L59.0037 14.9878C58.4473 15.5735 57.7311 15.87 56.8329 15.87V16.37ZM59.3661 15.3323C60.0429 14.6207 60.3709 13.6824 60.3709 12.544H59.8709C59.8709 13.5816 59.575 14.3873 59.0038 14.9877L59.3661 15.3323ZM60.3709 12.544C60.3709 11.4058 60.043 10.4739 59.3639 9.77747L59.0059 10.1265C59.5749 10.7101 59.8709 11.5062 59.8709 12.544H60.3709ZM59.3683 9.78206C58.7092 9.07097 57.8568 8.718 56.8329 8.718V9.218C57.7291 9.218 58.4446 9.52103 59.0016 10.1219L59.3683 9.78206ZM56.8329 8.718C55.8091 8.718 54.9501 9.07083 54.2758 9.7797L54.6381 10.1243C55.2118 9.52117 55.9368 9.218 56.8329 9.218V8.718ZM54.2779 9.77747C53.5989 10.4739 53.2709 11.4058 53.2709 12.544H53.7709C53.7709 11.5062 54.067 10.7101 54.6359 10.1265L54.2779 9.77747ZM53.2709 12.544C53.2709 13.6824 53.599 14.6207 54.2758 15.3323L54.6381 14.9877C54.0669 14.3873 53.7709 13.5816 53.7709 12.544H53.2709ZM54.2779 15.3345C54.9527 16.0266 55.8111 16.37 56.8329 16.37V15.87C55.9348 15.87 55.2092 15.5734 54.6359 14.9855L54.2779 15.3345ZM69.3474 15.184L69.1706 15.3608L69.174 15.3641L69.3474 15.184ZM69.8754 17.8L69.6329 17.7394L69.6329 17.7394L69.8754 17.8ZM69.3474 19.24L69.1173 19.1422L69.115 19.148L69.3474 19.24ZM67.9794 22.696V22.946H68.1494L68.2119 22.788L67.9794 22.696ZM65.6034 22.696L65.3625 22.6293L65.2749 22.946H65.6034V22.696ZM66.6594 18.88L66.9004 18.9467L66.9601 18.731L66.7523 18.6479L66.6594 18.88ZM65.6994 18.112L65.4856 18.2422L65.4929 18.2528L65.6994 18.112ZM66.0114 15.184L66.1848 15.3641L66.185 15.364L66.0114 15.184ZM67.6914 14.786C68.3044 14.786 68.7905 14.9806 69.1707 15.3608L69.5242 15.0072C69.0404 14.5234 68.4225 14.286 67.6914 14.286V14.786ZM69.174 15.3641C69.5497 15.7259 69.7454 16.209 69.7454 16.84H70.2454C70.2454 16.095 70.0091 15.4741 69.5208 15.0039L69.174 15.3641ZM69.7454 16.84C69.7454 17.1389 69.7081 17.4386 69.6329 17.7394L70.118 17.8606C70.2028 17.5214 70.2454 17.1811 70.2454 16.84H69.7454ZM69.6329 17.7394C69.5579 18.0392 69.3886 18.5041 69.1174 19.1422L69.5775 19.3378C69.8503 18.6959 70.0329 18.2008 70.118 17.8606L69.6329 17.7394ZM69.115 19.148L67.747 22.604L68.2119 22.788L69.5799 19.332L69.115 19.148ZM67.9794 22.446H65.6034V22.946H67.9794V22.446ZM65.8444 22.7627L66.9004 18.9467L66.4185 18.8133L65.3625 22.6293L65.8444 22.7627ZM66.7523 18.6479C66.3979 18.5061 66.1177 18.2816 65.906 17.9712L65.4929 18.2528C65.7612 18.6464 66.121 18.9339 66.5666 19.1121L66.7523 18.6479ZM65.913 17.982C65.7155 17.6575 65.6134 17.2795 65.6134 16.84H65.1134C65.1134 17.3605 65.2354 17.8305 65.4859 18.242L65.913 17.982ZM65.6134 16.84C65.6134 16.209 65.8091 15.7259 66.1848 15.3641L65.838 15.0039C65.3497 15.4741 65.1134 16.095 65.1134 16.84H65.6134ZM66.185 15.364C66.5824 14.9807 67.0785 14.786 67.6914 14.786V14.286C66.9604 14.286 66.3364 14.5233 65.8379 15.004L66.185 15.364ZM79.5936 2.2V1.95H79.3436V2.2H79.5936ZM83.4816 2.2H83.7316V1.95H83.4816V2.2ZM83.4816 19V19.25H83.7316V19H83.4816ZM79.5936 19H79.3436V19.25H79.5936V19ZM79.5936 2.45H83.4816V1.95H79.5936V2.45ZM83.2316 2.2V19H83.7316V2.2H83.2316ZM83.4816 18.75H79.5936V19.25H83.4816V18.75ZM79.8436 19V2.2H79.3436V19H79.8436ZM90.3006 1.648L90.1238 1.82481L90.1272 1.82808L90.3006 1.648ZM90.8286 4.264L90.586 4.20337L90.586 4.20337L90.8286 4.264ZM90.3246 5.704L90.5565 5.7974L90.5567 5.79685L90.3246 5.704ZM88.9326 9.16V9.41H89.1014L89.1645 9.2534L88.9326 9.16ZM86.5566 9.16L86.3153 9.09435L86.2294 9.41H86.5566V9.16ZM87.5886 5.368L87.8298 5.43365L87.8863 5.22589L87.6892 5.13917L87.5886 5.368ZM86.6526 4.576L86.4416 4.71022L86.4416 4.71022L86.6526 4.576ZM86.9646 1.648L87.138 1.82808L87.1381 1.82796L86.9646 1.648ZM88.6446 1.25C89.2575 1.25 89.7436 1.44457 90.1238 1.82478L90.4773 1.47122C89.9935 0.987429 89.3756 0.749999 88.6446 0.749999V1.25ZM90.1272 1.82808C90.5029 2.18988 90.6986 2.67302 90.6986 3.304H91.1986C91.1986 2.55898 90.9623 1.93812 90.474 1.46792L90.1272 1.82808ZM90.6986 3.304C90.6986 3.60294 90.6612 3.90258 90.586 4.20337L91.0711 4.32463C91.1559 3.98542 91.1986 3.64506 91.1986 3.304H90.6986ZM90.586 4.20337C90.5104 4.50602 90.3477 4.97291 90.0924 5.61115L90.5567 5.79685C90.8134 5.15509 90.9868 4.66198 91.0711 4.32463L90.586 4.20337ZM90.0927 5.6106L88.7007 9.0666L89.1645 9.2534L90.5565 5.7974L90.0927 5.6106ZM88.9326 8.91H86.5566V9.41H88.9326V8.91ZM86.7978 9.22565L87.8298 5.43365L87.3473 5.30235L86.3153 9.09435L86.7978 9.22565ZM87.6892 5.13917C87.3323 4.9821 87.0596 4.74999 86.8635 4.44178L86.4416 4.71022C86.6935 5.10601 87.0448 5.40189 87.4879 5.59683L87.6892 5.13917ZM86.8635 4.44178C86.6695 4.13693 86.5666 3.76155 86.5666 3.304H86.0666C86.0666 3.83845 86.1876 4.31107 86.4416 4.71022L86.8635 4.44178ZM86.5666 3.304C86.5666 2.67302 86.7623 2.18988 87.138 1.82808L86.7912 1.46792C86.3029 1.93812 86.0666 2.55898 86.0666 3.304H86.5666ZM87.1381 1.82796C87.5356 1.44468 88.0316 1.25 88.6446 1.25V0.749999C87.9135 0.749999 87.2896 0.987318 86.791 1.46804L87.1381 1.82796ZM113.862 7.336L113.684 7.51131L113.687 7.51426L113.862 7.336ZM115.302 19V19.25H115.552V19H115.302ZM111.558 19H111.308V19.25H111.558V19ZM110.91 9.904L110.716 10.0617L110.721 10.0682L110.91 9.904ZM107.022 10L107.206 10.1687L107.209 10.1661L107.022 10ZM106.254 19V19.25H106.504V19H106.254ZM102.51 19H102.26V19.25H102.51V19ZM97.9978 10L98.1823 10.1687L98.1847 10.1661L97.9978 10ZM97.2298 19V19.25H97.4798V19H97.2298ZM93.4858 19H93.2358V19.25H93.4858V19ZM93.4858 6.088V5.838H93.2358V6.088H93.4858ZM97.0618 6.088H97.3118V5.838H97.0618V6.088ZM97.0618 7.576H96.8118V8.23719L97.2493 7.74141L97.0618 7.576ZM98.8138 6.328L98.7192 6.09661L98.7173 6.09739L98.8138 6.328ZM103.59 6.448L103.478 6.67164L103.482 6.67353L103.59 6.448ZM105.366 8.008L105.156 8.14442L105.347 8.43689L105.562 8.16245L105.366 8.008ZM107.358 6.448L107.255 6.2201L107.253 6.22088L107.358 6.448ZM110.022 6.146C111.585 6.146 112.796 6.60846 113.684 7.51128L114.04 7.16071C113.04 6.14354 111.69 5.646 110.022 5.646V6.146ZM113.687 7.51426C114.582 8.39464 115.052 9.74289 115.052 11.608H115.552C115.552 9.66511 115.062 8.16536 114.037 7.15774L113.687 7.51426ZM115.052 11.608V19H115.552V11.608H115.052ZM115.302 18.75H111.558V19.25H115.302V18.75ZM111.808 19V12.184H111.308V19H111.808ZM111.808 12.184C111.808 11.1317 111.587 10.3008 111.098 9.7398L110.721 10.0682C111.097 10.4992 111.308 11.1883 111.308 12.184H111.808ZM111.104 9.74635C110.631 9.1647 109.953 8.886 109.11 8.886V9.386C109.834 9.386 110.356 9.6193 110.716 10.0616L111.104 9.74635ZM109.11 8.886C108.17 8.886 107.401 9.19669 106.835 9.83391L107.209 10.1661C107.666 9.65131 108.29 9.386 109.11 9.386V8.886ZM106.837 9.83131C106.267 10.4551 106.004 11.3667 106.004 12.52H106.504C106.504 11.4333 106.753 10.6649 107.206 10.1687L106.837 9.83131ZM106.004 12.52V19H106.504V12.52H106.004ZM106.254 18.75H102.51V19.25H106.254V18.75ZM102.76 19V12.184H102.26V19H102.76ZM102.76 12.184C102.76 11.1411 102.551 10.3127 102.093 9.74145C101.626 9.15977 100.933 8.886 100.062 8.886V9.386C100.823 9.386 101.354 9.62022 101.703 10.0545C102.06 10.4993 102.26 11.1949 102.26 12.184H102.76ZM100.062 8.886C99.136 8.886 98.3764 9.19774 97.811 9.83391L98.1847 10.1661C98.6432 9.65026 99.2596 9.386 100.062 9.386V8.886ZM97.8133 9.83131C97.2429 10.4551 96.9798 11.3667 96.9798 12.52H97.4798C97.4798 11.4333 97.7287 10.6649 98.1823 10.1687L97.8133 9.83131ZM96.9798 12.52V19H97.4798V12.52H96.9798ZM97.2298 18.75H93.4858V19.25H97.2298V18.75ZM93.7358 19V6.088H93.2358V19H93.7358ZM93.4858 6.338H97.0618V5.838H93.4858V6.338ZM96.8118 6.088V7.576H97.3118V6.088H96.8118ZM97.2493 7.74141C97.7036 7.22654 98.2562 6.83245 98.9103 6.55861L98.7173 6.09739C97.9954 6.39955 97.3801 6.83746 96.8744 7.41059L97.2493 7.74141ZM98.9085 6.55939C99.5797 6.28479 100.315 6.146 101.118 6.146V5.646C100.256 5.646 99.4559 5.79521 98.7192 6.09661L98.9085 6.55939ZM101.118 6.146C101.995 6.146 102.78 6.32277 103.478 6.67161L103.702 6.22439C102.927 5.83723 102.064 5.646 101.118 5.646V6.146ZM103.482 6.67353C104.176 7.00559 104.733 7.49463 105.156 8.14442L105.575 7.87158C105.102 7.14536 104.475 6.59441 103.698 6.22247L103.482 6.67353ZM105.562 8.16245C106.065 7.52261 106.697 7.02707 107.462 6.67512L107.253 6.22088C106.418 6.60493 105.722 7.14939 105.169 7.85354L105.562 8.16245ZM107.461 6.6759C108.242 6.3235 109.095 6.146 110.022 6.146V5.646C109.029 5.646 108.106 5.8365 107.255 6.2201L107.461 6.6759ZM15.6 44.832H15.85V44.582H15.6V44.832ZM15.6 48V48.25H15.85V48H15.6ZM0.912 48H0.662V48.25H0.912V48ZM0.912 45.48L0.719571 45.3204L0.662 45.3898V45.48H0.912ZM10.128 34.368L10.3204 34.5276L10.6601 34.118H10.128V34.368ZM1.104 34.368H0.854V34.618H1.104V34.368ZM1.104 31.2V30.95H0.854V31.2H1.104ZM15.24 31.2H15.49V30.95H15.24V31.2ZM15.24 33.72L15.4326 33.8793L15.49 33.81V33.72H15.24ZM6.048 44.832L5.85537 44.6727L5.51675 45.082H6.048V44.832ZM15.35 44.832V48H15.85V44.832H15.35ZM15.6 47.75H0.912V48.25H15.6V47.75ZM1.162 48V45.48H0.662V48H1.162ZM1.10443 45.6396L10.3204 34.5276L9.93557 34.2084L0.719571 45.3204L1.10443 45.6396ZM10.128 34.118H1.104V34.618H10.128V34.118ZM1.354 34.368V31.2H0.854V34.368H1.354ZM1.104 31.45H15.24V30.95H1.104V31.45ZM14.99 31.2V33.72H15.49V31.2H14.99ZM15.0474 33.5606L5.85537 44.6727L6.24063 44.9913L15.4326 33.8793L15.0474 33.5606ZM6.048 45.082H15.6V44.582H6.048V45.082ZM27.7159 36.336L27.5491 36.5222L27.5507 36.5236L27.7159 36.336ZM29.3239 48V48.25H29.5739V48H29.3239ZM25.8199 48H25.5699V48.25H25.8199V48ZM25.8199 46.392H26.0699V45.4718L25.6042 46.2655L25.8199 46.392ZM19.2919 47.688L19.1862 47.9146L19.1881 47.9154L19.2919 47.688ZM17.6359 46.296L17.8456 46.16L17.8456 46.16L17.6359 46.296ZM18.4039 41.448L18.2533 41.2484L18.2516 41.2497L18.4039 41.448ZM25.5799 40.416V40.666H25.8299V40.416H25.5799ZM24.8359 38.544L24.6683 38.7296L24.6717 38.7325L24.8359 38.544ZM20.5639 38.208L20.6394 38.4463L20.6429 38.4452L20.5639 38.208ZM18.8839 39.072L18.6615 39.1862L18.8007 39.4571L19.0392 39.2679L18.8839 39.072ZM17.5399 36.456L17.3959 36.2516L17.2181 36.3769L17.3175 36.5702L17.5399 36.456ZM20.0599 35.304L19.9938 35.0629L19.9928 35.0632L20.0599 35.304ZM24.5239 45.24L24.6494 45.4563L24.6545 45.4532L24.5239 45.24ZM25.5799 43.92L25.815 44.0049L25.8299 43.9638V43.92H25.5799ZM25.5799 42.6H25.8299V42.35H25.5799V42.6ZM21.2599 45.264L21.1056 45.4611L21.1154 45.468L21.2599 45.264ZM23.1079 35.146C25.0704 35.146 26.5381 35.6169 27.5491 36.5222L27.8827 36.1498C26.7496 35.1351 25.1454 34.646 23.1079 34.646V35.146ZM27.5507 36.5236C28.5519 37.4053 29.0739 38.7578 29.0739 40.632H29.5739C29.5739 38.6662 29.0238 37.1547 27.8811 36.1484L27.5507 36.5236ZM29.0739 40.632V48H29.5739V40.632H29.0739ZM29.3239 47.75H25.8199V48.25H29.3239V47.75ZM26.0699 48V46.392H25.5699V48H26.0699ZM25.6042 46.2655C24.9614 47.3612 23.753 47.942 21.8839 47.942V48.442C23.8548 48.442 25.2703 47.8228 26.0355 46.5185L25.6042 46.2655ZM21.8839 47.942C20.9198 47.942 20.0926 47.7787 19.3957 47.4606L19.1881 47.9154C19.9631 48.2693 20.864 48.442 21.8839 48.442V47.942ZM19.3976 47.4615C18.7146 47.1427 18.201 46.7078 17.8456 46.16L17.4261 46.432C17.8388 47.0682 18.4292 47.5613 19.1862 47.9145L19.3976 47.4615ZM17.8456 46.16C17.4896 45.6112 17.3099 44.987 17.3099 44.28H16.8099C16.8099 45.077 17.0141 45.7968 17.4261 46.432L17.8456 46.16ZM17.3099 44.28C17.3099 43.1521 17.7261 42.2837 18.5561 41.6463L18.2516 41.2497C17.2897 41.9883 16.8099 43.0079 16.8099 44.28H17.3099ZM18.5544 41.6476C19.4028 41.0075 20.7378 40.666 22.6039 40.666V40.166C20.694 40.166 19.2289 40.5125 18.2533 41.2484L18.5544 41.6476ZM22.6039 40.666H25.5799V40.166H22.6039V40.666ZM25.8299 40.416C25.8299 39.5465 25.5633 38.8461 25.0001 38.3555L24.6717 38.7325C25.1004 39.1059 25.3299 39.6535 25.3299 40.416H25.8299ZM25.0034 38.3585C24.4436 37.8528 23.6285 37.622 22.6039 37.622V38.122C23.5633 38.122 24.2361 38.3392 24.6683 38.7295L25.0034 38.3585ZM22.6039 37.622C21.8882 37.622 21.1815 37.7386 20.4848 37.9708L20.6429 38.4452C21.2902 38.2294 21.9435 38.122 22.6039 38.122V37.622ZM20.4883 37.9697C19.808 38.1854 19.2198 38.4865 18.7285 38.8761L19.0392 39.2679C19.4759 38.9215 20.0078 38.6466 20.6394 38.4463L20.4883 37.9697ZM19.1062 38.9578L17.7622 36.3418L17.3175 36.5702L18.6615 39.1862L19.1062 38.9578ZM17.6839 36.6604C18.3608 36.1834 19.1738 35.8105 20.127 35.5448L19.9928 35.0632C18.994 35.3415 18.127 35.7366 17.3959 36.2516L17.6839 36.6604ZM20.126 35.5451C21.0962 35.2791 22.09 35.146 23.1079 35.146V34.646C22.0458 34.646 21.0075 34.7849 19.9938 35.0629L20.126 35.5451ZM22.8199 45.922C23.4987 45.922 24.111 45.7688 24.6494 45.4562L24.3983 45.0238C23.9448 45.2872 23.421 45.422 22.8199 45.422V45.922ZM24.6545 45.4532C25.2016 45.1179 25.5888 44.6312 25.815 44.0049L25.3447 43.8351C25.1549 44.3608 24.8382 44.7541 24.3932 45.0268L24.6545 45.4532ZM25.8299 43.92V42.6H25.3299V43.92H25.8299ZM25.5799 42.35H23.0119V42.85H25.5799V42.35ZM23.0119 42.35C22.2245 42.35 21.5905 42.4777 21.1467 42.769C20.6845 43.0723 20.4579 43.5335 20.4579 44.112H20.9579C20.9579 43.6825 21.1152 43.3877 21.421 43.187C21.7452 42.9743 22.2633 42.85 23.0119 42.85V42.35ZM20.4579 44.112C20.4579 44.6664 20.6754 45.124 21.1058 45.4609L21.414 45.0671C21.1084 44.828 20.9579 44.5176 20.9579 44.112H20.4579ZM21.1154 45.468C21.5553 45.7796 22.1319 45.922 22.8199 45.922V45.422C22.1958 45.422 21.7324 45.2924 21.4044 45.06L21.1154 45.468ZM35.373 47.352L35.256 47.573L35.2599 47.575L35.373 47.352ZM32.805 44.976L32.5909 45.1051L32.5924 45.1076L32.805 44.976ZM32.805 38.112L32.5924 37.9804L32.5909 37.9829L32.805 38.112ZM35.373 35.76L35.4874 35.9823L35.4886 35.9816L35.373 35.76ZM42.645 35.76L42.5209 35.9771L42.525 35.9793L42.645 35.76ZM44.877 38.184L44.9953 38.4042L45.1988 38.2949L45.1059 38.0834L44.877 38.184ZM41.973 39.744L41.7556 39.8674L41.8761 40.0798L42.0913 39.9642L41.973 39.744ZM36.645 38.928L36.4682 38.7512L36.4682 38.7512L36.645 38.928ZM41.973 43.344L42.0927 43.1245L41.8747 43.0056L41.7543 43.2228L41.973 43.344ZM44.877 44.928L45.1047 45.0312L45.2005 44.8197L44.9967 44.7085L44.877 44.928ZM42.645 47.328L42.5224 47.1101L42.521 47.1109L42.645 47.328ZM39.093 47.942C37.7519 47.942 36.5513 47.6694 35.4861 47.129L35.2599 47.575C36.4027 48.1546 37.6821 48.442 39.093 48.442V47.942ZM35.49 47.1311C34.4396 46.575 33.6173 45.8132 33.0176 44.8444L32.5924 45.1076C33.2407 46.1548 34.1304 46.977 35.256 47.5729L35.49 47.1311ZM33.0191 44.8469C32.4366 43.8812 32.143 42.7826 32.143 41.544H31.643C31.643 42.8654 31.9574 44.0548 32.5909 45.1051L33.0191 44.8469ZM32.143 41.544C32.143 40.3054 32.4366 39.2068 33.0191 38.2411L32.5909 37.9829C31.9574 39.0332 31.643 40.2226 31.643 41.544H32.143ZM33.0176 38.2436C33.6169 37.2754 34.4384 36.5222 35.4874 35.9823L35.2586 35.5377C34.1316 36.1178 33.2411 36.9326 32.5924 37.9804L33.0176 38.2436ZM35.4886 35.9816C36.5533 35.4262 37.753 35.146 39.093 35.146V34.646C37.681 34.646 36.4007 34.9418 35.2574 35.5384L35.4886 35.9816ZM39.093 35.146C40.417 35.146 41.5568 35.4261 42.521 35.9771L42.769 35.5429C41.7172 34.9419 40.489 34.646 39.093 34.646V35.146ZM42.525 35.9793C43.5012 36.5132 44.2066 37.2797 44.6481 38.2846L45.1059 38.0834C44.6194 36.9763 43.8368 36.1268 42.765 35.5407L42.525 35.9793ZM44.7587 37.9638L41.8547 39.5238L42.0913 39.9642L44.9953 38.4042L44.7587 37.9638ZM42.1904 39.6206C41.4782 38.3657 40.4312 37.718 39.069 37.718V38.218C40.2348 38.218 41.1238 38.7543 41.7556 39.8674L42.1904 39.6206ZM39.069 37.718C38.0324 37.718 37.159 38.0604 36.4682 38.7512L36.8218 39.1048C37.411 38.5156 38.1536 38.218 39.069 38.218V37.718ZM36.4682 38.7512C35.7714 39.448 35.435 40.3892 35.435 41.544H35.935C35.935 40.4908 36.2386 39.688 36.8218 39.1048L36.4682 38.7512ZM35.435 41.544C35.435 42.6988 35.7714 43.64 36.4682 44.3368L36.8218 43.9832C36.2386 43.4 35.935 42.5972 35.935 41.544H35.435ZM36.4682 44.3368C37.159 45.0276 38.0324 45.37 39.069 45.37V44.87C38.1536 44.87 37.411 44.5724 36.8218 43.9832L36.4682 44.3368ZM39.069 45.37C39.749 45.37 40.3573 45.2123 40.8854 44.8893C41.4128 44.5667 41.8468 44.0877 42.1917 43.4652L41.7543 43.2228C41.4432 43.7843 41.0652 44.1933 40.6246 44.4627C40.1847 44.7317 39.669 44.87 39.069 44.87V45.37ZM41.8533 43.5635L44.7573 45.1475L44.9967 44.7085L42.0927 43.1245L41.8533 43.5635ZM44.6493 44.8248C44.2083 45.7981 43.5023 46.5589 42.5224 47.1101L42.7676 47.5459C43.8357 46.9451 44.6177 46.1059 45.1047 45.0312L44.6493 44.8248ZM42.521 47.1109C41.5568 47.6619 40.417 47.942 39.093 47.942V48.442C40.489 48.442 41.7172 48.1461 42.769 47.5451L42.521 47.1109ZM58.6509 36.336L58.4756 36.5142L58.4771 36.5156L58.6509 36.336ZM60.1389 48V48.25H60.3889V48H60.1389ZM56.3949 48H56.1449V48.25H56.3949V48ZM55.7229 38.904L55.5348 39.0686L55.5374 39.0716L55.7229 38.904ZM51.5229 39.024L51.7022 39.1983L51.7046 39.1958L51.5229 39.024ZM50.6829 48V48.25H50.9329V48H50.6829ZM46.9389 48H46.6889V48.25H46.9389V48ZM46.9389 30.192V29.942H46.6889V30.192H46.9389ZM50.6829 30.192H50.9329V29.942H50.6829V30.192ZM50.6829 36.432H50.4329V37.0356L50.8597 36.6088L50.6829 36.432ZM52.4829 35.304L52.5684 35.539L52.573 35.5372L52.4829 35.304ZM54.7869 35.146C56.3333 35.146 57.5542 35.608 58.4756 36.5142L58.8262 36.1578C57.7956 35.144 56.4406 34.646 54.7869 34.646V35.146ZM58.4771 36.5156C59.4047 37.4133 59.8889 38.7621 59.8889 40.608H60.3889C60.3889 38.6779 59.8812 37.1787 58.8248 36.1563L58.4771 36.5156ZM59.8889 40.608V48H60.3889V40.608H59.8889ZM60.1389 47.75H56.3949V48.25H60.1389V47.75ZM56.6449 48V41.184H56.1449V48H56.6449ZM56.6449 41.184C56.6449 40.1299 56.4152 39.2975 55.9085 38.7364L55.5374 39.0716C55.9266 39.5025 56.1449 40.1901 56.1449 41.184H56.6449ZM55.9111 38.7394C55.4043 38.1602 54.6798 37.886 53.7789 37.886V38.386C54.574 38.386 55.1456 38.6238 55.5348 39.0686L55.9111 38.7394ZM53.7789 37.886C52.7781 37.886 51.9561 38.2023 51.3413 38.8522L51.7046 39.1958C52.2097 38.6617 52.8918 38.386 53.7789 38.386V37.886ZM51.3437 38.8497C50.7218 39.4894 50.4329 40.4272 50.4329 41.616H50.9329C50.9329 40.5008 51.2041 39.7106 51.7022 39.1983L51.3437 38.8497ZM50.4329 41.616V48H50.9329V41.616H50.4329ZM50.6829 47.75H46.9389V48.25H50.6829V47.75ZM47.1889 48V30.192H46.6889V48H47.1889ZM46.9389 30.442H50.6829V29.942H46.9389V30.442ZM50.4329 30.192V36.432H50.9329V30.192H50.4329ZM50.8597 36.6088C51.3282 36.1403 51.8963 35.7833 52.5684 35.5389L52.3975 35.0691C51.6615 35.3367 51.0297 35.7317 50.5062 36.2552L50.8597 36.6088ZM52.573 35.5372C53.2455 35.2774 53.9826 35.146 54.7869 35.146V34.646C53.9273 34.646 53.1284 34.7866 52.3928 35.0708L52.573 35.5372ZM73.3487 36.336L73.1819 36.5222L73.1835 36.5236L73.3487 36.336ZM74.9567 48V48.25H75.2067V48H74.9567ZM71.4527 48H71.2027V48.25H71.4527V48ZM71.4527 46.392H71.7027V45.4718L71.2371 46.2655L71.4527 46.392ZM64.9247 47.688L64.819 47.9146L64.8209 47.9154L64.9247 47.688ZM63.2687 46.296L63.4784 46.16L63.4784 46.16L63.2687 46.296ZM64.0367 41.448L63.8861 41.2484L63.8844 41.2497L64.0367 41.448ZM71.2127 40.416V40.666H71.4627V40.416H71.2127ZM70.4687 38.544L70.3011 38.7296L70.3045 38.7325L70.4687 38.544ZM66.1967 38.208L66.2723 38.4463L66.2757 38.4452L66.1967 38.208ZM64.5167 39.072L64.2943 39.1862L64.4335 39.4571L64.672 39.2679L64.5167 39.072ZM63.1727 36.456L63.0287 36.2516L62.851 36.3769L62.9503 36.5702L63.1727 36.456ZM65.6927 35.304L65.6266 35.0629L65.6256 35.0632L65.6927 35.304ZM70.1567 45.24L70.2823 45.4563L70.2873 45.4532L70.1567 45.24ZM71.2127 43.92L71.4478 44.0049L71.4627 43.9638V43.92H71.2127ZM71.2127 42.6H71.4627V42.35H71.2127V42.6ZM66.8927 45.264L66.7384 45.4611L66.7482 45.468L66.8927 45.264ZM68.7407 35.146C70.7032 35.146 72.171 35.6169 73.1819 36.5222L73.5155 36.1498C72.3824 35.1351 70.7782 34.646 68.7407 34.646V35.146ZM73.1835 36.5236C74.1847 37.4053 74.7067 38.7578 74.7067 40.632H75.2067C75.2067 38.6662 74.6566 37.1547 73.5139 36.1484L73.1835 36.5236ZM74.7067 40.632V48H75.2067V40.632H74.7067ZM74.9567 47.75H71.4527V48.25H74.9567V47.75ZM71.7027 48V46.392H71.2027V48H71.7027ZM71.2371 46.2655C70.5942 47.3612 69.3858 47.942 67.5167 47.942V48.442C69.4876 48.442 70.9031 47.8228 71.6683 46.5185L71.2371 46.2655ZM67.5167 47.942C66.5526 47.942 65.7254 47.7787 65.0285 47.4606L64.8209 47.9154C65.596 48.2693 66.4968 48.442 67.5167 48.442V47.942ZM65.0304 47.4615C64.3474 47.1427 63.8338 46.7078 63.4784 46.16L63.0589 46.432C63.4716 47.0682 64.062 47.5613 64.819 47.9145L65.0304 47.4615ZM63.4784 46.16C63.1225 45.6112 62.9427 44.987 62.9427 44.28H62.4427C62.4427 45.077 62.6469 45.7968 63.0589 46.432L63.4784 46.16ZM62.9427 44.28C62.9427 43.1521 63.3589 42.2837 64.1889 41.6463L63.8844 41.2497C62.9225 41.9883 62.4427 43.0079 62.4427 44.28H62.9427ZM64.1872 41.6476C65.0357 41.0075 66.3706 40.666 68.2367 40.666V40.166C66.3268 40.166 64.8617 40.5125 63.8861 41.2484L64.1872 41.6476ZM68.2367 40.666H71.2127V40.166H68.2367V40.666ZM71.4627 40.416C71.4627 39.5465 71.1962 38.8461 70.6329 38.3555L70.3045 38.7325C70.7332 39.1059 70.9627 39.6535 70.9627 40.416H71.4627ZM70.6363 38.3585C70.0764 37.8528 69.2613 37.622 68.2367 37.622V38.122C69.1961 38.122 69.869 38.3392 70.3011 38.7295L70.6363 38.3585ZM68.2367 37.622C67.521 37.622 66.8144 37.7386 66.1176 37.9708L66.2757 38.4452C66.923 38.2294 67.5764 38.122 68.2367 38.122V37.622ZM66.1211 37.9697C65.4408 38.1854 64.8527 38.4865 64.3613 38.8761L64.672 39.2679C65.1087 38.9215 65.6406 38.6466 66.2722 38.4463L66.1211 37.9697ZM64.7391 38.9578L63.3951 36.3418L62.9503 36.5702L64.2943 39.1862L64.7391 38.9578ZM63.3167 36.6604C63.9936 36.1834 64.8066 35.8105 65.7598 35.5448L65.6256 35.0632C64.6268 35.3415 63.7598 35.7366 63.0287 36.2516L63.3167 36.6604ZM65.7588 35.5451C66.729 35.2791 67.7228 35.146 68.7407 35.146V34.646C67.6786 34.646 66.6404 34.7849 65.6266 35.0629L65.7588 35.5451ZM68.4527 45.922C69.1316 45.922 69.7438 45.7688 70.2822 45.4562L70.0312 45.0238C69.5776 45.2872 69.0538 45.422 68.4527 45.422V45.922ZM70.2873 45.4532C70.8344 45.1179 71.2216 44.6312 71.4478 44.0049L70.9775 43.8351C70.7877 44.3608 70.471 44.7541 70.026 45.0268L70.2873 45.4532ZM71.4627 43.92V42.6H70.9627V43.92H71.4627ZM71.2127 42.35H68.6447V42.85H71.2127V42.35ZM68.6447 42.35C67.8573 42.35 67.2233 42.4777 66.7795 42.769C66.3174 43.0723 66.0907 43.5335 66.0907 44.112H66.5907C66.5907 43.6825 66.748 43.3877 67.0539 43.187C67.378 42.9743 67.8961 42.85 68.6447 42.85V42.35ZM66.0907 44.112C66.0907 44.6664 66.3082 45.124 66.7386 45.4609L67.0468 45.0671C66.7412 44.828 66.5907 44.5176 66.5907 44.112H66.0907ZM66.7482 45.468C67.1881 45.7796 67.7647 45.922 68.4527 45.922V45.422C67.8287 45.422 67.3652 45.2924 67.0372 45.06L66.7482 45.468ZM81.9212 36.792H81.6712V37.5689L82.1243 36.9378L81.9212 36.792ZM83.7212 35.376L83.625 35.1452L83.6233 35.146L83.7212 35.376ZM86.3612 34.896H86.6112V34.646H86.3612V34.896ZM86.3612 38.352L86.342 38.6013L86.6112 38.622V38.352H86.3612ZM83.0012 39.216L83.1756 39.3951L83.178 39.3928L83.0012 39.216ZM82.0892 48V48.25H82.3392V48H82.0892ZM78.3452 48H78.0952V48.25H78.3452V48ZM78.3452 35.088V34.838H78.0952V35.088H78.3452ZM81.9212 35.088H82.1712V34.838H81.9212V35.088ZM82.1243 36.9378C82.5439 36.3534 83.1064 35.9093 83.8191 35.606L83.6233 35.146C82.832 35.4827 82.1945 35.9826 81.7181 36.6462L82.1243 36.9378ZM83.8173 35.6068C84.5496 35.3017 85.396 35.146 86.3612 35.146V34.646C85.3424 34.646 84.4288 34.8103 83.625 35.1452L83.8173 35.6068ZM86.1112 34.896V38.352H86.6112V34.896H86.1112ZM86.3804 38.1027C85.9657 38.0708 85.6763 38.054 85.5212 38.054V38.554C85.6541 38.554 85.9247 38.5692 86.342 38.6013L86.3804 38.1027ZM85.5212 38.054C84.4002 38.054 83.4903 38.3734 82.8244 39.0392L83.178 39.3928C83.7281 38.8426 84.4982 38.554 85.5212 38.554V38.054ZM82.8268 39.0369C82.1533 39.6926 81.8392 40.6649 81.8392 41.904H82.3392C82.3392 40.7431 82.633 39.9234 83.1756 39.3951L82.8268 39.0369ZM81.8392 41.904V48H82.3392V41.904H81.8392ZM82.0892 47.75H78.3452V48.25H82.0892V47.75ZM78.5952 48V35.088H78.0952V48H78.5952ZM78.3452 35.338H81.9212V34.838H78.3452V35.338ZM81.6712 35.088V36.792H82.1712V35.088H81.6712ZM101.849 35.088L102.079 35.1859L102.227 34.838H101.849V35.088ZM96.0167 48.792L95.7866 48.6941L95.7844 48.6996L96.0167 48.792ZM93.8087 51.936L93.6666 51.7303L93.6648 51.7315L93.8087 51.936ZM88.6727 52.536L88.7482 52.2977L88.6727 52.536ZM87.0647 51.672L86.8423 51.5578L86.7536 51.7306L86.899 51.8592L87.0647 51.672ZM88.4327 49.008L88.5988 48.8211L88.3577 48.6068L88.2103 48.8938L88.4327 49.008ZM89.4167 49.608L89.3256 49.8408L89.3289 49.8421L89.4167 49.608ZM91.7927 49.44L91.6426 49.2399L91.6365 49.2448L91.7927 49.44ZM92.6567 48.216L92.8853 48.3176L92.8888 48.3088L92.6567 48.216ZM92.7047 48.096L92.9368 48.1888L92.9753 48.0925L92.9344 47.9973L92.7047 48.096ZM87.1127 35.088V34.838H86.7331L86.883 35.1867L87.1127 35.088ZM90.9767 35.088L91.2077 34.9924L91.1438 34.838H90.9767V35.088ZM94.6007 43.848L94.3697 43.9436L94.5999 44.5001L94.8315 43.9441L94.6007 43.848ZM98.2487 35.088V34.838H98.082L98.0179 34.9919L98.2487 35.088ZM101.619 34.9901L95.7867 48.6941L96.2467 48.8899L102.079 35.1859L101.619 34.9901ZM95.7844 48.6996C95.2021 50.1632 94.4905 51.1611 93.6666 51.7303L93.9508 52.1417C94.8869 51.4949 95.6473 50.3968 96.249 48.8844L95.7844 48.6996ZM93.6648 51.7315C92.8496 52.3052 91.854 52.598 90.6647 52.598V53.098C91.9394 53.098 93.0398 52.7828 93.9526 52.1405L93.6648 51.7315ZM90.6647 52.598C90.0189 52.598 89.3804 52.4981 88.7482 52.2977L88.5971 52.7743C89.277 52.9899 89.9664 53.098 90.6647 53.098V52.598ZM88.7482 52.2977C88.1178 52.0978 87.6147 51.8248 87.2303 51.4848L86.899 51.8592C87.3466 52.2552 87.9156 52.5582 88.5971 52.7743L88.7482 52.2977ZM87.2871 51.7862L88.6551 49.1222L88.2103 48.8938L86.8423 51.5578L87.2871 51.7862ZM88.2666 49.1949C88.5772 49.471 88.9308 49.6863 89.3256 49.8408L89.5078 49.3752C89.1666 49.2417 88.8641 49.057 88.5988 48.8211L88.2666 49.1949ZM89.3289 49.8421C89.7378 49.9954 90.1435 50.074 90.5447 50.074V49.574C90.2099 49.574 89.8636 49.5086 89.5045 49.3739L89.3289 49.8421ZM90.5447 50.074C91.099 50.074 91.5744 49.9348 91.9489 49.6352L91.6365 49.2448C91.371 49.4572 91.0144 49.574 90.5447 49.574V50.074ZM91.9427 49.64C92.311 49.3637 92.6208 48.9122 92.8851 48.3175L92.4282 48.1145C92.1805 48.6718 91.9144 49.0363 91.6427 49.24L91.9427 49.64ZM92.8888 48.3088L92.9368 48.1888L92.4726 48.0032L92.4246 48.1232L92.8888 48.3088ZM92.9344 47.9973L87.3424 34.9893L86.883 35.1867L92.475 48.1947L92.9344 47.9973ZM87.1127 35.338H90.9767V34.838H87.1127V35.338ZM90.7457 35.1836L94.3697 43.9436L94.8317 43.7524L91.2077 34.9924L90.7457 35.1836ZM94.8315 43.9441L98.4795 35.1841L98.0179 34.9919L94.3699 43.7519L94.8315 43.9441ZM98.2487 35.338H101.849V34.838H98.2487V35.338ZM125.725 48L125.475 48.0006L125.476 48.25H125.725V48ZM125.701 37.92L125.951 37.9194L125.949 37.015L125.487 37.7921L125.701 37.92ZM120.757 46.224V46.474H120.899L120.972 46.3519L120.757 46.224ZM119.005 46.224L118.792 46.3539L118.865 46.474H119.005V46.224ZM114.085 38.136L114.299 38.0061L113.835 37.244V38.136H114.085ZM114.085 48V48.25H114.335V48H114.085ZM110.437 48H110.187V48.25H110.437V48ZM110.437 31.2V30.95H110.187V31.2H110.437ZM113.653 31.2L113.867 31.071L113.795 30.95H113.653V31.2ZM119.941 41.64L119.727 41.769L119.943 42.1273L120.156 41.7675L119.941 41.64ZM126.133 31.2V30.95H125.991L125.918 31.0725L126.133 31.2ZM129.325 31.2L129.575 31.1993L129.575 30.95H129.325V31.2ZM129.373 48V48.25H129.624L129.623 47.9993L129.373 48ZM125.975 47.9994L125.951 37.9194L125.451 37.9206L125.475 48.0006L125.975 47.9994ZM125.487 37.7921L120.543 46.0961L120.972 46.3519L125.916 38.0479L125.487 37.7921ZM120.757 45.974H119.005V46.474H120.757V45.974ZM119.219 46.0941L114.299 38.0061L113.872 38.2659L118.792 46.3539L119.219 46.0941ZM113.835 38.136V48H114.335V38.136H113.835ZM114.085 47.75H110.437V48.25H114.085V47.75ZM110.687 48V31.2H110.187V48H110.687ZM110.437 31.45H113.653V30.95H110.437V31.45ZM113.439 31.329L119.727 41.769L120.155 41.511L113.867 31.071L113.439 31.329ZM120.156 41.7675L126.348 31.3275L125.918 31.0725L119.726 41.5125L120.156 41.7675ZM126.133 31.45H129.325V30.95H126.133V31.45ZM129.075 31.2007L129.123 48.0007L129.623 47.9993L129.575 31.1993L129.075 31.2007ZM129.373 47.75H125.725V48.25H129.373V47.75ZM142.911 36.336L142.744 36.5222L142.746 36.5236L142.911 36.336ZM144.519 48V48.25H144.769V48H144.519ZM141.015 48H140.765V48.25H141.015V48ZM141.015 46.392H141.265V45.4718L140.8 46.2655L141.015 46.392ZM134.487 47.688L134.381 47.9146L134.383 47.9154L134.487 47.688ZM132.831 46.296L133.041 46.16L133.041 46.16L132.831 46.296ZM133.599 41.448L133.449 41.2484L133.447 41.2497L133.599 41.448ZM140.775 40.416V40.666H141.025V40.416H140.775ZM140.031 38.544L139.864 38.7296L139.867 38.7325L140.031 38.544ZM135.759 38.208L135.835 38.4463L135.838 38.4452L135.759 38.208ZM134.079 39.072L133.857 39.1862L133.996 39.4571L134.235 39.2679L134.079 39.072ZM132.735 36.456L132.591 36.2516L132.413 36.3769L132.513 36.5702L132.735 36.456ZM135.255 35.304L135.189 35.0629L135.188 35.0632L135.255 35.304ZM139.719 45.24L139.845 45.4563L139.85 45.4532L139.719 45.24ZM140.775 43.92L141.01 44.0049L141.025 43.9638V43.92H140.775ZM140.775 42.6H141.025V42.35H140.775V42.6ZM136.455 45.264L136.301 45.4611L136.311 45.468L136.455 45.264ZM138.303 35.146C140.266 35.146 141.733 35.6169 142.744 36.5222L143.078 36.1498C141.945 35.1351 140.341 34.646 138.303 34.646V35.146ZM142.746 36.5236C143.747 37.4053 144.269 38.7578 144.269 40.632H144.769C144.769 38.6662 144.219 37.1547 143.076 36.1484L142.746 36.5236ZM144.269 40.632V48H144.769V40.632H144.269ZM144.519 47.75H141.015V48.25H144.519V47.75ZM141.265 48V46.392H140.765V48H141.265ZM140.8 46.2655C140.157 47.3612 138.948 47.942 137.079 47.942V48.442C139.05 48.442 140.466 47.8228 141.231 46.5185L140.8 46.2655ZM137.079 47.942C136.115 47.942 135.288 47.7787 134.591 47.4606L134.383 47.9154C135.158 48.2693 136.059 48.442 137.079 48.442V47.942ZM134.593 47.4615C133.91 47.1427 133.396 46.7078 133.041 46.16L132.621 46.432C133.034 47.0682 133.624 47.5613 134.381 47.9145L134.593 47.4615ZM133.041 46.16C132.685 45.6112 132.505 44.987 132.505 44.28H132.005C132.005 45.077 132.209 45.7968 132.621 46.432L133.041 46.16ZM132.505 44.28C132.505 43.1521 132.921 42.2837 133.751 41.6463L133.447 41.2497C132.485 41.9883 132.005 43.0079 132.005 44.28H132.505ZM133.75 41.6476C134.598 41.0075 135.933 40.666 137.799 40.666V40.166C135.889 40.166 134.424 40.5125 133.449 41.2484L133.75 41.6476ZM137.799 40.666H140.775V40.166H137.799V40.666ZM141.025 40.416C141.025 39.5465 140.759 38.8461 140.195 38.3555L139.867 38.7325C140.296 39.1059 140.525 39.6535 140.525 40.416H141.025ZM140.199 38.3585C139.639 37.8528 138.824 37.622 137.799 37.622V38.122C138.759 38.122 139.431 38.3392 139.864 38.7295L140.199 38.3585ZM137.799 37.622C137.084 37.622 136.377 37.7386 135.68 37.9708L135.838 38.4452C136.486 38.2294 137.139 38.122 137.799 38.122V37.622ZM135.684 37.9697C135.003 38.1854 134.415 38.4865 133.924 38.8761L134.235 39.2679C134.671 38.9215 135.203 38.6466 135.835 38.4463L135.684 37.9697ZM134.302 38.9578L132.958 36.3418L132.513 36.5702L133.857 39.1862L134.302 38.9578ZM132.879 36.6604C133.556 36.1834 134.369 35.8105 135.322 35.5448L135.188 35.0632C134.189 35.3415 133.322 35.7366 132.591 36.2516L132.879 36.6604ZM135.321 35.5451C136.292 35.2791 137.285 35.146 138.303 35.146V34.646C137.241 34.646 136.203 34.7849 135.189 35.0629L135.321 35.5451ZM138.015 45.922C138.694 45.922 139.306 45.7688 139.845 45.4562L139.594 45.0238C139.14 45.2872 138.616 45.422 138.015 45.422V45.922ZM139.85 45.4532C140.397 45.1179 140.784 44.6312 141.01 44.0049L140.54 43.8351C140.35 44.3608 140.033 44.7541 139.589 45.0268L139.85 45.4532ZM141.025 43.92V42.6H140.525V43.92H141.025ZM140.775 42.35H138.207V42.85H140.775V42.35ZM138.207 42.35C137.42 42.35 136.786 42.4777 136.342 42.769C135.88 43.0723 135.653 43.5335 135.653 44.112H136.153C136.153 43.6825 136.311 43.3877 136.616 43.187C136.941 42.9743 137.459 42.85 138.207 42.85V42.35ZM135.653 44.112C135.653 44.6664 135.871 45.124 136.301 45.4609L136.609 45.0671C136.304 44.828 136.153 44.5176 136.153 44.112H135.653ZM136.311 45.468C136.751 45.7796 137.327 45.922 138.015 45.922V45.422C137.391 45.422 136.928 45.2924 136.6 45.06L136.311 45.468ZM151.484 36.792H151.234V37.5689L151.687 36.9378L151.484 36.792ZM153.284 35.376L153.188 35.1452L153.186 35.146L153.284 35.376ZM155.924 34.896H156.174V34.646H155.924V34.896ZM155.924 38.352L155.905 38.6013L156.174 38.622V38.352H155.924ZM152.564 39.216L152.738 39.3951L152.74 39.3928L152.564 39.216ZM151.652 48V48.25H151.902V48H151.652ZM147.908 48H147.658V48.25H147.908V48ZM147.908 35.088V34.838H147.658V35.088H147.908ZM151.484 35.088H151.734V34.838H151.484V35.088ZM151.687 36.9378C152.106 36.3534 152.669 35.9093 153.382 35.606L153.186 35.146C152.394 35.4827 151.757 35.9826 151.281 36.6462L151.687 36.9378ZM153.38 35.6068C154.112 35.3017 154.958 35.146 155.924 35.146V34.646C154.905 34.646 153.991 34.8103 153.188 35.1452L153.38 35.6068ZM155.674 34.896V38.352H156.174V34.896H155.674ZM155.943 38.1027C155.528 38.0708 155.239 38.054 155.084 38.054V38.554C155.217 38.554 155.487 38.5692 155.905 38.6013L155.943 38.1027ZM155.084 38.054C153.963 38.054 153.053 38.3734 152.387 39.0392L152.74 39.3928C153.291 38.8426 154.061 38.554 155.084 38.554V38.054ZM152.389 39.0369C151.716 39.6926 151.402 40.6649 151.402 41.904H151.902C151.902 40.7431 152.196 39.9234 152.738 39.3951L152.389 39.0369ZM151.402 41.904V48H151.902V41.904H151.402ZM151.652 47.75H147.908V48.25H151.652V47.75ZM148.158 48V35.088H147.658V48H148.158ZM147.908 35.338H151.484V34.838H147.908V35.338ZM151.234 35.088V36.792H151.734V35.088H151.234ZM158.15 35.088V34.838H157.9V35.088H158.15ZM161.894 35.088H162.144V34.838H161.894V35.088ZM161.894 48V48.25H162.144V48H161.894ZM158.15 48H157.9V48.25H158.15V48ZM158.342 32.688L158.172 32.8714L158.172 32.8714L158.342 32.688ZM158.342 29.712L158.512 29.8954L158.512 29.8954L158.342 29.712ZM161.702 29.688L161.536 29.8749L161.536 29.8749L161.702 29.688ZM161.702 32.688L161.872 32.8715L161.875 32.8681L161.702 32.688ZM158.15 35.338H161.894V34.838H158.15V35.338ZM161.644 35.088V48H162.144V35.088H161.644ZM161.894 47.75H158.15V48.25H161.894V47.75ZM158.4 48V35.088H157.9V48H158.4ZM160.022 33.038C159.386 33.038 158.89 32.8547 158.512 32.5046L158.172 32.8714C158.658 33.3213 159.282 33.538 160.022 33.538V33.038ZM158.512 32.5046C158.131 32.1522 157.944 31.7228 157.944 31.2H157.444C157.444 31.8612 157.689 32.4238 158.172 32.8714L158.512 32.5046ZM157.944 31.2C157.944 30.6772 158.131 30.2478 158.512 29.8954L158.172 29.5286C157.689 29.9762 157.444 30.5388 157.444 31.2H157.944ZM158.512 29.8954C158.89 29.5453 159.386 29.362 160.022 29.362V28.862C159.282 28.862 158.658 29.0787 158.172 29.5286L158.512 29.8954ZM160.022 29.362C160.661 29.362 161.158 29.539 161.536 29.8749L161.868 29.5011C161.382 29.069 160.759 28.862 160.022 28.862V29.362ZM161.536 29.8749C161.915 30.2116 162.1 30.6237 162.1 31.128H162.6C162.6 30.4803 162.353 29.9324 161.868 29.5011L161.536 29.8749ZM162.1 31.128C162.1 31.6871 161.909 32.1411 161.528 32.5079L161.875 32.8681C162.358 32.4029 162.6 31.8169 162.6 31.128H162.1ZM161.532 32.5046C161.154 32.8547 160.658 33.038 160.022 33.038V33.538C160.762 33.538 161.386 33.3213 161.872 32.8714L161.532 32.5046ZM167.841 47.352L167.722 47.5723L167.726 47.5743L167.841 47.352ZM165.321 44.976L165.107 45.1051L165.107 45.1051L165.321 44.976ZM165.321 38.112L165.107 37.9829L165.107 37.9829L165.321 38.112ZM167.841 35.76L167.956 35.9816L167.958 35.9809L167.841 35.76ZM175.161 35.76L175.042 35.9802L175.045 35.9816L175.161 35.76ZM177.681 38.112L177.895 37.9829L177.895 37.9829L177.681 38.112ZM177.681 44.976L177.895 45.1051L177.895 45.1051L177.681 44.976ZM175.161 47.352L175.276 47.5736L175.279 47.5722L175.161 47.352ZM173.865 44.16L173.683 43.9877L173.683 43.9878L173.865 44.16ZM173.865 38.952L173.681 39.122L173.686 39.1265L173.865 38.952ZM169.137 38.952L169.316 39.1265L169.318 39.1243L169.137 38.952ZM169.137 44.16L168.955 44.3323L168.958 44.3345L169.137 44.16ZM171.513 47.942C170.188 47.942 169.004 47.6695 167.955 47.1297L167.726 47.5743C168.853 48.1545 170.117 48.442 171.513 48.442V47.942ZM167.959 47.1318C166.925 46.5763 166.119 45.8151 165.535 44.8469L165.107 45.1051C165.739 46.1529 166.612 46.9757 167.722 47.5722L167.959 47.1318ZM165.535 44.8469C164.952 43.8812 164.659 42.7826 164.659 41.544H164.159C164.159 42.8654 164.473 44.0548 165.107 45.1051L165.535 44.8469ZM164.659 41.544C164.659 40.3054 164.952 39.2068 165.535 38.2411L165.107 37.9829C164.473 39.0332 164.159 40.2226 164.159 41.544H164.659ZM165.535 38.2411C166.118 37.2735 166.924 36.521 167.956 35.9816L167.725 35.5384C166.613 36.119 165.739 36.9345 165.107 37.9829L165.535 38.2411ZM167.958 35.9809C169.006 35.426 170.189 35.146 171.513 35.146V34.646C170.116 34.646 168.851 34.942 167.724 35.5391L167.958 35.9809ZM171.513 35.146C172.836 35.146 174.011 35.426 175.042 35.9802L175.279 35.5398C174.166 34.942 172.909 34.646 171.513 34.646V35.146ZM175.045 35.9816C176.077 36.521 176.883 37.2735 177.467 38.2411L177.895 37.9829C177.262 36.9345 176.388 36.119 175.276 35.5384L175.045 35.9816ZM177.467 38.2411C178.049 39.2068 178.343 40.3054 178.343 41.544H178.843C178.843 40.2226 178.528 39.0332 177.895 37.9829L177.467 38.2411ZM178.343 41.544C178.343 42.7826 178.049 43.8812 177.467 44.8469L177.895 45.1051C178.528 44.0548 178.843 42.8654 178.843 41.544H178.343ZM177.467 44.8469C176.883 45.8151 176.076 46.5763 175.042 47.1318L175.279 47.5722C176.389 46.9757 177.263 46.1529 177.895 45.1051L177.467 44.8469ZM175.045 47.1304C174.013 47.6695 172.837 47.942 171.513 47.942V48.442C172.908 48.442 174.164 48.1545 175.276 47.5736L175.045 47.1304ZM171.513 45.37C172.534 45.37 173.386 45.0265 174.046 44.3322L173.683 43.9878C173.127 44.5735 172.411 44.87 171.513 44.87V45.37ZM174.046 44.3323C174.723 43.6207 175.051 42.6824 175.051 41.544H174.551C174.551 42.5816 174.255 43.3873 173.683 43.9877L174.046 44.3323ZM175.051 41.544C175.051 40.4058 174.723 39.4739 174.044 38.7775L173.686 39.1265C174.255 39.7101 174.551 40.5062 174.551 41.544H175.051ZM174.048 38.7821C173.389 38.071 172.537 37.718 171.513 37.718V38.218C172.409 38.218 173.124 38.521 173.681 39.1219L174.048 38.7821ZM171.513 37.718C170.489 37.718 169.63 38.0708 168.955 38.7797L169.318 39.1243C169.891 38.5212 170.616 38.218 171.513 38.218V37.718ZM168.958 38.7775C168.279 39.4739 167.951 40.4058 167.951 41.544H168.451C168.451 40.5062 168.747 39.7101 169.316 39.1265L168.958 38.7775ZM167.951 41.544C167.951 42.6824 168.279 43.6207 168.955 44.3323L169.318 43.9877C168.747 43.3873 168.451 42.5816 168.451 41.544H167.951ZM168.958 44.3345C169.632 45.0266 170.491 45.37 171.513 45.37V44.87C170.614 44.87 169.889 44.5734 169.316 43.9855L168.958 44.3345ZM192.807 36.336L192.632 36.5142L192.633 36.5156L192.807 36.336ZM194.295 48V48.25H194.545V48H194.295ZM190.551 48H190.301V48.25H190.551V48ZM189.879 38.904L189.691 39.0686L189.694 39.0716L189.879 38.904ZM185.679 39.024L185.858 39.1983L185.861 39.1958L185.679 39.024ZM184.839 48V48.25H185.089V48H184.839ZM181.095 48H180.845V48.25H181.095V48ZM181.095 35.088V34.838H180.845V35.088H181.095ZM184.671 35.088H184.921V34.838H184.671V35.088ZM184.671 36.6H184.421V37.2452L184.856 36.7684L184.671 36.6ZM186.519 35.352L186.61 35.5849L186.615 35.5831L186.519 35.352ZM188.943 35.146C190.49 35.146 191.71 35.608 192.632 36.5142L192.982 36.1578C191.952 35.144 190.597 34.646 188.943 34.646V35.146ZM192.633 36.5156C193.561 37.4133 194.045 38.7621 194.045 40.608H194.545C194.545 38.6779 194.037 37.1787 192.981 36.1563L192.633 36.5156ZM194.045 40.608V48H194.545V40.608H194.045ZM194.295 47.75H190.551V48.25H194.295V47.75ZM190.801 48V41.184H190.301V48H190.801ZM190.801 41.184C190.801 40.1299 190.571 39.2975 190.065 38.7364L189.694 39.0716C190.083 39.5025 190.301 40.1901 190.301 41.184H190.801ZM190.067 38.7394C189.561 38.1602 188.836 37.886 187.935 37.886V38.386C188.73 38.386 189.302 38.6238 189.691 39.0686L190.067 38.7394ZM187.935 37.886C186.934 37.886 186.112 38.2023 185.498 38.8522L185.861 39.1958C186.366 38.6617 187.048 38.386 187.935 38.386V37.886ZM185.5 38.8497C184.878 39.4894 184.589 40.4272 184.589 41.616H185.089C185.089 40.5008 185.36 39.7106 185.858 39.1983L185.5 38.8497ZM184.589 41.616V48H185.089V41.616H184.589ZM184.839 47.75H181.095V48.25H184.839V47.75ZM181.345 48V35.088H180.845V48H181.345ZM181.095 35.338H184.671V34.838H181.095V35.338ZM184.421 35.088V36.6H184.921V35.088H184.421ZM184.856 36.7684C185.324 36.2549 185.907 35.8599 186.61 35.5848L186.428 35.1192C185.659 35.4201 185.01 35.8571 184.486 36.4316L184.856 36.7684ZM186.615 35.5831C187.317 35.2928 188.092 35.146 188.943 35.146V34.646C188.034 34.646 187.193 34.8032 186.424 35.1209L186.615 35.5831Z"/>
</svg>