<svg width="30" height="30" viewBox="0 0 30 30" fill="none" xmlns="http://www.w3.org/2000/svg">
<rect x="0.5" y="0.5" width="29" height="29" stroke="white"/>
<path d="M7.552 22.712C8.176 21.848 8.832 20.92 9.52 19.928C10.224 18.936 10.928 17.944 11.632 16.952C12.336 15.944 13.024 14.96 13.696 14C14.368 13.024 14.984 12.128 15.544 11.312C16.104 10.48 16.592 9.76 17.008 9.152C17.424 8.528 17.736 8.056 17.944 7.736C17.656 7.72 17.368 7.712 17.08 7.712C16.792 7.696 16.52 7.688 16.264 7.688C15.688 7.688 15.048 7.696 14.344 7.712C13.64 7.728 12.928 7.76 12.208 7.808C11.504 7.84 10.824 7.88 10.168 7.928C9.528 7.96 8.984 8 8.536 8.048C8.616 7.76 8.656 7.512 8.656 7.304C8.656 7.096 8.616 6.848 8.536 6.56C9.32 6.624 10.56 6.664 12.256 6.68C13.952 6.68 16.048 6.68 18.544 6.68C18.976 6.68 19.408 6.672 19.84 6.656C20.272 6.624 20.696 6.592 21.112 6.56V6.992C20.792 7.328 20.344 7.88 19.768 8.648C19.192 9.416 18.552 10.288 17.848 11.264C17.16 12.24 16.44 13.272 15.688 14.36C14.936 15.448 14.224 16.488 13.552 17.48C12.88 18.472 12.28 19.368 11.752 20.168C11.24 20.952 10.864 21.536 10.624 21.92C11.008 21.952 11.352 21.976 11.656 21.992C11.976 21.992 12.296 21.992 12.616 21.992C13.224 21.992 13.928 21.984 14.728 21.968C15.544 21.936 16.352 21.896 17.152 21.848C17.952 21.8 18.704 21.752 19.408 21.704C20.128 21.656 20.696 21.608 21.112 21.56C21.08 21.704 21.048 21.84 21.016 21.968C21 22.096 20.992 22.224 20.992 22.352C20.992 22.56 21.032 22.792 21.112 23.048C20.536 23.032 20 23.016 19.504 23C19.024 23 18.56 23 18.112 23C17.664 23 17.224 23 16.792 23C16.36 23 15.92 23 15.472 23C14.848 23 14.136 23 13.336 23C12.552 23 11.776 23 11.008 23C10.256 23 9.568 23 8.944 23C8.32 23.016 7.856 23.032 7.552 23.048V22.712Z" fill="white"/>
</svg>